<?xml version="1.0"?>
<svg xmlns="http://www.w3.org/2000/svg" id="Oultline" viewBox="0 0 512 512" width="512" height="512"><path d="M480,472V120a72.081,72.081,0,0,0-72-72H312V24a8,8,0,0,0-8-8H208a8,8,0,0,0-8,8V48H104a72.081,72.081,0,0,0-72,72V472a8,8,0,0,0,8,8h64a8,8,0,0,0,8-8V385.759l4.933.986,11.132,86.278A8,8,0,0,0,136,480H256v8a8,8,0,0,0,8,8h48a8,8,0,0,0,8-8v-8h56a8,8,0,0,0,7.935-6.977l11.089-85.944L400,385.973V472a8,8,0,0,0,8,8h64A8,8,0,0,0,480,472Zm-336.966-8-9.54-73.943L256,414.559V464ZM272,480V408a8,8,0,0,0-6.431-7.845L112,369.441V337.759l16,3.2V352a8,8,0,0,0,16,0v-7.841l16,3.2V360a8,8,0,0,0,16,0v-9.441l16,3.2V368a8,8,0,0,0,16,0V356.959l16,3.2V376a8,8,0,0,0,16,0V363.359l16,3.2V376a8,8,0,0,0,16,0v-7.195a39.976,39.976,0,0,1,21.04,11.731l-8.618,4.309a8,8,0,1,0,7.156,14.31l9.957-4.978A39.791,39.791,0,0,1,304,408v8h-8a8,8,0,0,0,0,16h8v16h-8a8,8,0,0,0,0,16h8v16Zm96.966-16H320V408c0-1.418-.07-2.819-.174-4.211l58.588-13.019Zm-52.607-75.831a56.3,56.3,0,0,0-21.466-26.839L336,352.2V360a8,8,0,0,0,16,0V348.64l16-3.556V352a8,8,0,0,0,16,0V341.529l16-3.556v31.61ZM464,464H416V168a8,8,0,0,0-16,0v55.485L386.969,324.478,263.913,351.824,124.974,324.036,112,223.484V168a8,8,0,0,0-16,0V464H48V120a56.063,56.063,0,0,1,56-56h96v8a8.009,8.009,0,0,1-8,8H128a8,8,0,0,0,0,16h64a24.028,24.028,0,0,0,24-24V32h80V72a24.028,24.028,0,0,0,24,24h64a8,8,0,0,0,0-16H320a8.009,8.009,0,0,1-8-8V64h96a56.063,56.063,0,0,1,56,56Z"/><path d="M240,208V168a8,8,0,0,0-16,0v40a8.009,8.009,0,0,1-8,8H168a8,8,0,0,0,0,16h48A24.028,24.028,0,0,0,240,208Z"/><path d="M344,216H296a8.009,8.009,0,0,1-8-8V168a8,8,0,0,0-16,0v40a24.028,24.028,0,0,0,24,24h48a8,8,0,0,0,0-16Z"/><path d="M288,272H272a8.009,8.009,0,0,1-8-8V248a8,8,0,0,0-16,0v16a8.009,8.009,0,0,1-8,8H224a8,8,0,0,0,0,16h16a23.9,23.9,0,0,0,16-6.131A23.9,23.9,0,0,0,272,288h16a8,8,0,0,0,0-16Z"/></svg>
