<?xml version="1.0" encoding="iso-8859-1"?>
<!-- Generator: Adobe Illustrator 18.0.0, SVG Export Plug-In . SVG Version: 6.00 Build 0)  -->
<!DOCTYPE svg PUBLIC "-//W3C//DTD SVG 1.1//EN" "http://www.w3.org/Graphics/SVG/1.1/DTD/svg11.dtd">
<svg version="1.1" id="Capa_1" xmlns="http://www.w3.org/2000/svg" xmlns:xlink="http://www.w3.org/1999/xlink" x="0px" y="0px"
	 viewBox="0 0 65.5 65.5" style="enable-background:new 0 0 65.5 65.5;" xml:space="preserve">
<path style="fill:#231F20;" d="M52.5,0H13C5.832,0,0,5.832,0,13v39.5c0,7.168,5.832,13,13,13h39.5c7.168,0,13-5.832,13-13V13
	C65.5,5.832,59.668,0,52.5,0z M63.5,52.5c0,6.065-4.935,11-11,11H13c-6.065,0-11-4.935-11-11V13C2,6.935,6.935,2,13,2h39.5
	c6.065,0,11,4.935,11,11V52.5z M44.279,5.975H21.221c-3.844,0-6.971,3.127-6.971,6.971s3.127,6.971,6.971,6.971h23.059
	c3.844,0,6.971-3.127,6.971-6.971S48.123,5.975,44.279,5.975z M44.279,17.917H21.221c-2.741,0-4.971-2.23-4.971-4.971
	s2.229-4.971,4.971-4.971h23.059c2.741,0,4.971,2.23,4.971,4.971S47.021,17.917,44.279,17.917z M31.224,9.841l0.064,0.998
	c-0.329,0.021-0.656,0.049-0.981,0.084L30.2,9.929C30.538,9.892,30.879,9.864,31.224,9.841z M23.283,11.8l0.409,0.913
	c-0.298,0.134-0.593,0.274-0.885,0.422l-0.451-0.893C22.661,12.088,22.97,11.94,23.283,11.8z M19.707,13.81l0.568,0.824
	c-0.271,0.186-0.537,0.378-0.798,0.575l-0.602-0.798C19.147,14.205,19.425,14.004,19.707,13.81z M27.166,10.463l0.238,0.971
	c-0.319,0.078-0.635,0.164-0.948,0.257l-0.283-0.959C26.5,10.634,26.831,10.545,27.166,10.463z M45.796,13.926
	c0.281,0.196,0.557,0.399,0.829,0.608l-0.61,0.793c-0.26-0.2-0.524-0.394-0.792-0.582L45.796,13.926z M42.233,11.882
	c0.311,0.144,0.619,0.294,0.924,0.451L42.7,13.222c-0.293-0.151-0.587-0.295-0.886-0.432L42.233,11.882z M38.359,10.507
	c0.333,0.086,0.663,0.178,0.991,0.278l-0.291,0.957c-0.314-0.096-0.63-0.184-0.949-0.266L38.359,10.507z M34.304,9.852
	c0.344,0.024,0.685,0.055,1.025,0.095l-0.116,0.993c-0.324-0.038-0.65-0.068-0.978-0.091L34.304,9.852z M33.468,15.963
	c0.109,0.539-0.008,0.98-0.26,0.98c-0.252,0-0.665,0-0.917,0c-0.252,0-0.369-0.441-0.26-0.98l0.52-2.566
	c0.109-0.539,0.288-0.539,0.397,0L33.468,15.963z M43.399,56.41c0,0.552-0.447,1-1,1H23.101c-0.553,0-1-0.448-1-1s0.447-1,1-1
	h19.299C42.952,55.41,43.399,55.857,43.399,56.41z"/>
<g>
</g>
<g>
</g>
<g>
</g>
<g>
</g>
<g>
</g>
<g>
</g>
<g>
</g>
<g>
</g>
<g>
</g>
<g>
</g>
<g>
</g>
<g>
</g>
<g>
</g>
<g>
</g>
<g>
</g>
</svg>
